<svg id="ryggrad-logotyp" xmlns="http://www.w3.org/2000/svg" xmlns:xlink="http://www.w3.org/1999/xlink" viewBox="0 0 512 512" shape-rendering="geometricPrecision" text-rendering="geometricPrecision" width="512" height="512">
    <defs>
        <linearGradient id="bakgrund-fyll" x1="0.082096" y1="0.774511" x2="0.917904" y2="0.225489" spreadMethod="pad" gradientUnits="objectBoundingBox" gradientTransform="translate(0 0)">
            <stop id="bakgrund-fyll-0" offset="0%" stop-color="#ff9600"/>
            <stop id="bakgrund-fyll-1" offset="100%" stop-color="#ffee00"/>
        </linearGradient>
        <linearGradient id="ben-fyll" x1="0.082096" y1="0.774511" x2="0.917904" y2="0.225489" spreadMethod="pad" gradientUnits="objectBoundingBox" gradientTransform="translate(0 0)">
            <stop id="ben-fyll-0" offset="0%" stop-color="#967f00"/>
            <stop id="ben-fyll-1" offset="100%" stop-color="#00ef96"/>
        </linearGradient>
    </defs>
    <ellipse id="bakgrund" rx="256" ry="256" transform="translate(256 256)" fill="url(#bakgrund-fyll)" stroke-width="0"/>
    <g id="ryggrad" transform="matrix(1.25 0 0 1.25-64-64)">
        <g id="uppe" transform="matrix(-1 0 0-1 512 512)">
            <ellipse id="ben-0" rx="16.5" ry="16.5" transform="matrix(-1 0 0-1 250.5 415.5)" fill="url(#ben-fyll)" stroke-width="0"/>
            <ellipse id="ben-1" rx="22" ry="22" transform="matrix(-1 0 0-1 278 377.8)" fill="url(#ben-fyll)" stroke-width="0"/>
            <ellipse id="ben-2" rx="27.5" ry="27.5" transform="matrix(-1 0 0-1 283.5 316.5)" fill="url(#ben-fyll)" stroke-width="0"/>
        </g>
        <ellipse id="ben-3" rx="33" ry="33" transform="translate(256 256)" fill="url(#ben-fyll)" stroke-width="0"/>
        <g id="nere">
            <ellipse id="ben-4" rx="27.5" ry="27.5" transform="translate(283.5 316.5)" fill="url(#ben-fyll)" stroke-width="0"/>
            <ellipse id="ben-6" rx="16.5" ry="16.5" transform="translate(250.5 415.5)" fill="url(#ben-fyll)" stroke-width="0"/>
            <ellipse id="ben-5" rx="22" ry="22" transform="translate(278 377)" fill="url(#ben-fyll)" stroke-width="0"/>
        </g>
    </g>
</svg>

